<svg xmlns="http://www.w3.org/2000/svg" version="1.1" xmlns:xlink="http://www.w3.org/1999/xlink" xmlns:svgjs="http://svgjs.dev/svgjs" width="1440" height="1440" preserveAspectRatio="none" viewBox="0 0 1440 1440">
    <g mask="url(&quot;#SvgjsMask3401&quot;)" fill="none">
        <use xlink:href="#SvgjsG3405" transform="translate(0, 0)" fill="rgba(193, 163, 63, 1)"></use>
        <use xlink:href="#SvgjsG3405" transform="translate(0, 1050)" fill="rgba(193, 163, 63, 1)"></use>
        <use xlink:href="#SvgjsG3405" transform="translate(1050, 0)" fill="rgba(193, 163, 63, 1)"></use>
        <use xlink:href="#SvgjsG3405" transform="translate(1050, 1050)" fill="rgba(193, 163, 63, 1)"></use>
    </g>
    <defs>
        <mask id="SvgjsMask3401">
            <rect width="1440" height="1440" fill="#ffffff"></rect>
        </mask>
        <g id="SvgjsG3404">
            <path d="M17.71 7.84l0.65 0.63 0.24-0.25-0.58-0.55L18.58 7.09l-0.24-0.23-0.63 0.65-0.58 0.01 0.01 0.33L17.71 7.84zM0.05 7.55c-0.01-0.15-0.13-0.27-0.28-0.27a0.28 0.28 0 0 0-0.27 0.28l0.02 1.17c0.01 0.15 0.13 0.27 0.28 0.27 0.15-0.01 0.27-0.13 0.27-0.28L0.05 7.55zM-0.97 7.57c0-0.15-0.13-0.27-0.27-0.27-0.15 0-0.27 0.12-0.27 0.28l0.02 1.18c0 0.15 0.13 0.27 0.28 0.26 0.15 0 0.27-0.13 0.26-0.28l-0.02-1.17zM-2.44 8.87a0.27 0.27 0 0 0 0.21 0.11c0.15-0.01 0.27-0.13 0.27-0.28l-0.02-1.04a0.27 0.27 0 0 0-0.28-0.27c-0.1 0-0.18 0.06-0.22 0.14l-0.34 0.68 0.38 0.66z m15.99-0.46l-0.61 0.01a0.84 0.84 0 0 0-0.55 0.26c-0.16 0.17-0.24 0.39-0.23 0.6l0.06 3.49a4.38 4.38 0 0 1-1.23 3.13C9.3 17.64 6.52 17.69 4.78 16.01c-1.75-1.69-1.79-4.47-0.11-6.21l4.17-4.31c1.04-1.07 1.01-2.78-0.06-3.81-1.07-1.03-2.78-1-3.81 0.07a2.69 2.69 0 0 0-0.76 1.92l0.05 2.84a2.26 2.26 0 0 1-0.64 1.62c-0.44 0.45-1.01 0.68-1.59 0.69l-1.46 0.02-0.02-1.42 1.47-0.01a0.85 0.85 0 0 0 0.56-0.26 0.85 0.85 0 0 0 0.23-0.6L2.74 3.52A4.14 4.14 0 0 1 3.91 0.72C5.5-0.93 8.13-0.97 9.78 0.62s1.7 4.22 0.1 5.87l-4.17 4.31c-1.13 1.17-1.1 3.03 0.08 4.17 1.17 1.13 3.03 1.1 4.16-0.07 0.56-0.58 0.84-1.34 0.82-2.1L10.72 9.31c-0.01-0.58 0.2-1.17 0.64-1.61 0.44-0.45 1.01-0.68 1.59-0.7l0.88-0.01a0.21 0.21 0 0 0 0.15-0.07 0.21 0.21 0 0 0 0.07-0.13l0.02-0.5a0.32 0.32 0 0 1 0.09-0.19s0.23-0.56 2.04 0.51c0.26 0.15 0.49 0.4 0.5 0.71l0.06 0.7c0 0.32-0.23 0.57-0.48 0.73-1.8 1.09-2.04 0.53-2.04 0.53a0.34 0.34 0 0 1-0.09-0.18l-0.03-0.51a0.22 0.22 0 0 0-0.07-0.13 0.21 0.21 0 0 0-0.15-0.06l-0.35 0.01"></path>
        </g>
        <g id="SvgjsG3402">
            <path d="M2.11 4.65L1.86 3.45s3.94 2.04 5.82 3.86c1.29 1.24 2.75 1.96 3.05 0.79 0.29-1.17 2.32-3.26 3.93-1.49 0 0 1.18 1.14 0.21 2.37 0 0-0.5 0.33 0.74 2.15 0 0 0.11 0.42-0.58 0.17 0 0-2.21-2.44-2.56-1.65 0 0-0.55 0.46-0.05 1.54 0.85 1.83-1.98 7.48-7.23 1.6 0 0-2.12-2.23-2.91-4.96 0 0-1.14-2.88-1.73-3.88l1.56 0.71z" fill-rule="evenodd"></path>
        </g>
        <g id="SvgjsG3403">
            <path d="M4.43 4.15c0.21 0.2 0.56 0.2 0.75-0.01 0.2-0.21 0.19-0.56-0.01-0.76-0.21-0.2-0.56-0.2-0.76 0.01-0.2 0.21-0.19 0.56 0.02 0.76M1.91 2.81a0.06 0.06 0 0 1 0.02-0.04c0.02-0.02 0.06-0.02 0.08 0l1.22 1.19c0.06 0.06 0.15 0.06 0.21 0 0.04-0.05 0.05-0.1 0.04-0.17L2.88 2.19a0.1 0.1 0 0 1 0.02-0.1c0.02-0.02 0.04-0.03 0.07-0.03 0 0 5.39 0.24 9.44 8.96l2.6 0.85c0.03 0.01 0.05 0.02 0.07 0.04 0.08 0.07 0.08 0.2 0 0.27a0.21 0.21 0 0 1-0.08 0.05l-2.3 0.29-0.21 2.31c-0.01 0.03-0.02 0.07-0.05 0.09-0.07 0.07-0.19 0.08-0.27 0-0.02-0.02-0.03-0.04-0.04-0.07l-0.94-2.57S2.66 8.78 1.91 2.81" fill-rule="evenodd"></path>
        </g>
        <g id="SvgjsG3405">
            <use xlink:href="#SvgjsG3402" transform="translate(0, 0) scale(3)" fill="rgba(193, 163, 63, 1)"></use>
            <use xlink:href="#SvgjsG3403" transform="translate(0, 105) scale(3)" fill="rgba(193, 163, 63, 1)"></use>
            <use xlink:href="#SvgjsG3402" transform="translate(0, 210) scale(3)" fill="rgba(193, 163, 63, 1)"></use>
            <use xlink:href="#SvgjsG3403" transform="translate(0, 315) scale(3)" fill="rgba(193, 163, 63, 1)"></use>
            <use xlink:href="#SvgjsG3404" transform="translate(0, 420) scale(3)" fill="rgba(193, 163, 63, 1)"></use>
            <use xlink:href="#SvgjsG3404" transform="translate(0, 525) scale(3)" fill="rgba(193, 163, 63, 1)"></use>
            <use xlink:href="#SvgjsG3402" transform="translate(0, 630) scale(3)" fill="rgba(193, 163, 63, 1)"></use>
            <use xlink:href="#SvgjsG3403" transform="translate(0, 735) scale(3)" fill="rgba(193, 163, 63, 1)"></use>
            <use xlink:href="#SvgjsG3403" transform="translate(0, 840) scale(3)" fill="rgba(193, 163, 63, 1)"></use>
            <use xlink:href="#SvgjsG3404" transform="translate(0, 945) scale(3)" fill="rgba(193, 163, 63, 1)"></use>
            <use xlink:href="#SvgjsG3403" transform="translate(105, 0) scale(3)" fill="rgba(193, 163, 63, 1)"></use>
            <use xlink:href="#SvgjsG3404" transform="translate(105, 105) scale(3)" fill="rgba(193, 163, 63, 1)"></use>
            <use xlink:href="#SvgjsG3404" transform="translate(105, 210) scale(3)" fill="rgba(193, 163, 63, 1)"></use>
            <use xlink:href="#SvgjsG3402" transform="translate(105, 315) scale(3)" fill="rgba(193, 163, 63, 1)"></use>
            <use xlink:href="#SvgjsG3403" transform="translate(105, 420) scale(3)" fill="rgba(193, 163, 63, 1)"></use>
            <use xlink:href="#SvgjsG3404" transform="translate(105, 525) scale(3)" fill="rgba(193, 163, 63, 1)"></use>
            <use xlink:href="#SvgjsG3402" transform="translate(105, 630) scale(3)" fill="rgba(193, 163, 63, 1)"></use>
            <use xlink:href="#SvgjsG3402" transform="translate(105, 735) scale(3)" fill="rgba(193, 163, 63, 1)"></use>
            <use xlink:href="#SvgjsG3402" transform="translate(105, 840) scale(3)" fill="rgba(193, 163, 63, 1)"></use>
            <use xlink:href="#SvgjsG3403" transform="translate(105, 945) scale(3)" fill="rgba(193, 163, 63, 1)"></use>
            <use xlink:href="#SvgjsG3403" transform="translate(210, 0) scale(3)" fill="rgba(193, 163, 63, 1)"></use>
            <use xlink:href="#SvgjsG3402" transform="translate(210, 105) scale(3)" fill="rgba(193, 163, 63, 1)"></use>
            <use xlink:href="#SvgjsG3402" transform="translate(210, 210) scale(3)" fill="rgba(193, 163, 63, 1)"></use>
            <use xlink:href="#SvgjsG3402" transform="translate(210, 315) scale(3)" fill="rgba(193, 163, 63, 1)"></use>
            <use xlink:href="#SvgjsG3403" transform="translate(210, 420) scale(3)" fill="rgba(193, 163, 63, 1)"></use>
            <use xlink:href="#SvgjsG3403" transform="translate(210, 525) scale(3)" fill="rgba(193, 163, 63, 1)"></use>
            <use xlink:href="#SvgjsG3403" transform="translate(210, 630) scale(3)" fill="rgba(193, 163, 63, 1)"></use>
            <use xlink:href="#SvgjsG3402" transform="translate(210, 735) scale(3)" fill="rgba(193, 163, 63, 1)"></use>
            <use xlink:href="#SvgjsG3404" transform="translate(210, 840) scale(3)" fill="rgba(193, 163, 63, 1)"></use>
            <use xlink:href="#SvgjsG3402" transform="translate(210, 945) scale(3)" fill="rgba(193, 163, 63, 1)"></use>
            <use xlink:href="#SvgjsG3404" transform="translate(315, 0) scale(3)" fill="rgba(193, 163, 63, 1)"></use>
            <use xlink:href="#SvgjsG3404" transform="translate(315, 105) scale(3)" fill="rgba(193, 163, 63, 1)"></use>
            <use xlink:href="#SvgjsG3402" transform="translate(315, 210) scale(3)" fill="rgba(193, 163, 63, 1)"></use>
            <use xlink:href="#SvgjsG3402" transform="translate(315, 315) scale(3)" fill="rgba(193, 163, 63, 1)"></use>
            <use xlink:href="#SvgjsG3404" transform="translate(315, 420) scale(3)" fill="rgba(193, 163, 63, 1)"></use>
            <use xlink:href="#SvgjsG3403" transform="translate(315, 525) scale(3)" fill="rgba(193, 163, 63, 1)"></use>
            <use xlink:href="#SvgjsG3404" transform="translate(315, 630) scale(3)" fill="rgba(193, 163, 63, 1)"></use>
            <use xlink:href="#SvgjsG3404" transform="translate(315, 735) scale(3)" fill="rgba(193, 163, 63, 1)"></use>
            <use xlink:href="#SvgjsG3404" transform="translate(315, 840) scale(3)" fill="rgba(193, 163, 63, 1)"></use>
            <use xlink:href="#SvgjsG3402" transform="translate(315, 945) scale(3)" fill="rgba(193, 163, 63, 1)"></use>
            <use xlink:href="#SvgjsG3402" transform="translate(420, 0) scale(3)" fill="rgba(193, 163, 63, 1)"></use>
            <use xlink:href="#SvgjsG3404" transform="translate(420, 105) scale(3)" fill="rgba(193, 163, 63, 1)"></use>
            <use xlink:href="#SvgjsG3404" transform="translate(420, 210) scale(3)" fill="rgba(193, 163, 63, 1)"></use>
            <use xlink:href="#SvgjsG3404" transform="translate(420, 315) scale(3)" fill="rgba(193, 163, 63, 1)"></use>
            <use xlink:href="#SvgjsG3403" transform="translate(420, 420) scale(3)" fill="rgba(193, 163, 63, 1)"></use>
            <use xlink:href="#SvgjsG3404" transform="translate(420, 525) scale(3)" fill="rgba(193, 163, 63, 1)"></use>
            <use xlink:href="#SvgjsG3403" transform="translate(420, 630) scale(3)" fill="rgba(193, 163, 63, 1)"></use>
            <use xlink:href="#SvgjsG3403" transform="translate(420, 735) scale(3)" fill="rgba(193, 163, 63, 1)"></use>
            <use xlink:href="#SvgjsG3404" transform="translate(420, 840) scale(3)" fill="rgba(193, 163, 63, 1)"></use>
            <use xlink:href="#SvgjsG3403" transform="translate(420, 945) scale(3)" fill="rgba(193, 163, 63, 1)"></use>
            <use xlink:href="#SvgjsG3402" transform="translate(525, 0) scale(3)" fill="rgba(193, 163, 63, 1)"></use>
            <use xlink:href="#SvgjsG3403" transform="translate(525, 105) scale(3)" fill="rgba(193, 163, 63, 1)"></use>
            <use xlink:href="#SvgjsG3402" transform="translate(525, 210) scale(3)" fill="rgba(193, 163, 63, 1)"></use>
            <use xlink:href="#SvgjsG3403" transform="translate(525, 315) scale(3)" fill="rgba(193, 163, 63, 1)"></use>
            <use xlink:href="#SvgjsG3403" transform="translate(525, 420) scale(3)" fill="rgba(193, 163, 63, 1)"></use>
            <use xlink:href="#SvgjsG3404" transform="translate(525, 525) scale(3)" fill="rgba(193, 163, 63, 1)"></use>
            <use xlink:href="#SvgjsG3404" transform="translate(525, 630) scale(3)" fill="rgba(193, 163, 63, 1)"></use>
            <use xlink:href="#SvgjsG3404" transform="translate(525, 735) scale(3)" fill="rgba(193, 163, 63, 1)"></use>
            <use xlink:href="#SvgjsG3403" transform="translate(525, 840) scale(3)" fill="rgba(193, 163, 63, 1)"></use>
            <use xlink:href="#SvgjsG3402" transform="translate(525, 945) scale(3)" fill="rgba(193, 163, 63, 1)"></use>
            <use xlink:href="#SvgjsG3402" transform="translate(630, 0) scale(3)" fill="rgba(193, 163, 63, 1)"></use>
            <use xlink:href="#SvgjsG3402" transform="translate(630, 105) scale(3)" fill="rgba(193, 163, 63, 1)"></use>
            <use xlink:href="#SvgjsG3404" transform="translate(630, 210) scale(3)" fill="rgba(193, 163, 63, 1)"></use>
            <use xlink:href="#SvgjsG3402" transform="translate(630, 315) scale(3)" fill="rgba(193, 163, 63, 1)"></use>
            <use xlink:href="#SvgjsG3402" transform="translate(630, 420) scale(3)" fill="rgba(193, 163, 63, 1)"></use>
            <use xlink:href="#SvgjsG3403" transform="translate(630, 525) scale(3)" fill="rgba(193, 163, 63, 1)"></use>
            <use xlink:href="#SvgjsG3402" transform="translate(630, 630) scale(3)" fill="rgba(193, 163, 63, 1)"></use>
            <use xlink:href="#SvgjsG3402" transform="translate(630, 735) scale(3)" fill="rgba(193, 163, 63, 1)"></use>
            <use xlink:href="#SvgjsG3404" transform="translate(630, 840) scale(3)" fill="rgba(193, 163, 63, 1)"></use>
            <use xlink:href="#SvgjsG3404" transform="translate(630, 945) scale(3)" fill="rgba(193, 163, 63, 1)"></use>
            <use xlink:href="#SvgjsG3403" transform="translate(735, 0) scale(3)" fill="rgba(193, 163, 63, 1)"></use>
            <use xlink:href="#SvgjsG3403" transform="translate(735, 105) scale(3)" fill="rgba(193, 163, 63, 1)"></use>
            <use xlink:href="#SvgjsG3403" transform="translate(735, 210) scale(3)" fill="rgba(193, 163, 63, 1)"></use>
            <use xlink:href="#SvgjsG3402" transform="translate(735, 315) scale(3)" fill="rgba(193, 163, 63, 1)"></use>
            <use xlink:href="#SvgjsG3404" transform="translate(735, 420) scale(3)" fill="rgba(193, 163, 63, 1)"></use>
            <use xlink:href="#SvgjsG3404" transform="translate(735, 525) scale(3)" fill="rgba(193, 163, 63, 1)"></use>
            <use xlink:href="#SvgjsG3403" transform="translate(735, 630) scale(3)" fill="rgba(193, 163, 63, 1)"></use>
            <use xlink:href="#SvgjsG3404" transform="translate(735, 735) scale(3)" fill="rgba(193, 163, 63, 1)"></use>
            <use xlink:href="#SvgjsG3403" transform="translate(735, 840) scale(3)" fill="rgba(193, 163, 63, 1)"></use>
            <use xlink:href="#SvgjsG3402" transform="translate(735, 945) scale(3)" fill="rgba(193, 163, 63, 1)"></use>
            <use xlink:href="#SvgjsG3402" transform="translate(840, 0) scale(3)" fill="rgba(193, 163, 63, 1)"></use>
            <use xlink:href="#SvgjsG3404" transform="translate(840, 105) scale(3)" fill="rgba(193, 163, 63, 1)"></use>
            <use xlink:href="#SvgjsG3404" transform="translate(840, 210) scale(3)" fill="rgba(193, 163, 63, 1)"></use>
            <use xlink:href="#SvgjsG3403" transform="translate(840, 315) scale(3)" fill="rgba(193, 163, 63, 1)"></use>
            <use xlink:href="#SvgjsG3403" transform="translate(840, 420) scale(3)" fill="rgba(193, 163, 63, 1)"></use>
            <use xlink:href="#SvgjsG3402" transform="translate(840, 525) scale(3)" fill="rgba(193, 163, 63, 1)"></use>
            <use xlink:href="#SvgjsG3403" transform="translate(840, 630) scale(3)" fill="rgba(193, 163, 63, 1)"></use>
            <use xlink:href="#SvgjsG3404" transform="translate(840, 735) scale(3)" fill="rgba(193, 163, 63, 1)"></use>
            <use xlink:href="#SvgjsG3402" transform="translate(840, 840) scale(3)" fill="rgba(193, 163, 63, 1)"></use>
            <use xlink:href="#SvgjsG3403" transform="translate(840, 945) scale(3)" fill="rgba(193, 163, 63, 1)"></use>
            <use xlink:href="#SvgjsG3403" transform="translate(945, 0) scale(3)" fill="rgba(193, 163, 63, 1)"></use>
            <use xlink:href="#SvgjsG3402" transform="translate(945, 105) scale(3)" fill="rgba(193, 163, 63, 1)"></use>
            <use xlink:href="#SvgjsG3402" transform="translate(945, 210) scale(3)" fill="rgba(193, 163, 63, 1)"></use>
            <use xlink:href="#SvgjsG3404" transform="translate(945, 315) scale(3)" fill="rgba(193, 163, 63, 1)"></use>
            <use xlink:href="#SvgjsG3402" transform="translate(945, 420) scale(3)" fill="rgba(193, 163, 63, 1)"></use>
            <use xlink:href="#SvgjsG3402" transform="translate(945, 525) scale(3)" fill="rgba(193, 163, 63, 1)"></use>
            <use xlink:href="#SvgjsG3403" transform="translate(945, 630) scale(3)" fill="rgba(193, 163, 63, 1)"></use>
            <use xlink:href="#SvgjsG3403" transform="translate(945, 735) scale(3)" fill="rgba(193, 163, 63, 1)"></use>
            <use xlink:href="#SvgjsG3402" transform="translate(945, 840) scale(3)" fill="rgba(193, 163, 63, 1)"></use>
            <use xlink:href="#SvgjsG3402" transform="translate(945, 945) scale(3)" fill="rgba(193, 163, 63, 1)"></use>
        </g>
    </defs>
</svg>